<?xml version="1.0" encoding="UTF-8"?>
<!DOCTYPE svg PUBLIC "-//W3C//DTD SVG 1.1//EN" "http://www.w3.org/Graphics/SVG/1.1/DTD/svg11.dtd">
<svg xmlns="http://www.w3.org/2000/svg" version="1.1" width="285px" height="32px" style="shape-rendering:geometricPrecision; text-rendering:geometricPrecision; image-rendering:optimizeQuality; fill-rule:evenodd; clip-rule:evenodd" xmlns:xlink="http://www.w3.org/1999/xlink">
<g><path style="opacity:0.761" fill="#34313d" d="M 0.5,-0.5 C 10.5,-0.5 20.5,-0.5 30.5,-0.5C 30.8333,0.166667 31.1667,0.833333 31.5,1.5C 31.1667,1.5 30.8333,1.5 30.5,1.5C 30.1667,1.5 29.8333,1.5 29.5,1.5C 20.0982,0.17156 10.5982,0.17156 1,1.5C 0.194341,11.244 0.361008,20.9107 1.5,30.5C 1.5,30.8333 1.5,31.1667 1.5,31.5C 1.16667,31.5 0.833333,31.5 0.5,31.5C 0.5,30.8333 0.166667,30.5 -0.5,30.5C -0.5,20.5 -0.5,10.5 -0.5,0.5C 0.166667,0.5 0.5,0.166667 0.5,-0.5 Z"/></g>
<g><path style="opacity:0.725" fill="#fefffe" d="M 40.5,5.5 C 41.5,5.5 42.5,5.5 43.5,5.5C 43.3341,10.5111 43.5007,15.5111 44,20.5C 45.9879,23.8382 48.3212,24.1715 51,21.5C 51.4994,16.1771 51.666,10.8437 51.5,5.5C 52.5,5.5 53.5,5.5 54.5,5.5C 54.6661,11.1764 54.4994,16.8431 54,22.5C 49.8515,27.7093 45.5181,27.7093 41,22.5C 40.5006,16.8431 40.3339,11.1764 40.5,5.5 Z"/></g>
<g><path style="opacity:0.761" fill="#fefffe" d="M 60.5,5.5 C 63.5184,5.33537 66.5184,5.50204 69.5,6C 70.9308,6.46524 72.0975,7.29857 73,8.5C 72.4967,12.3534 72.6633,16.1867 73.5,20C 73.6464,22.0342 72.9797,23.7009 71.5,25C 68.1789,26.4381 64.8456,26.6048 61.5,25.5C 60.5033,18.8665 60.17,12.1998 60.5,5.5 Z M 63.5,8.5 C 65.5273,8.33788 67.5273,8.50454 69.5,9C 70.4786,13.5166 68.4786,15.35 63.5,14.5C 63.5,12.5 63.5,10.5 63.5,8.5 Z M 63.5,16.5 C 66.8852,15.7896 69.2186,16.9563 70.5,20C 69.2186,23.0437 66.8852,24.2104 63.5,23.5C 63.5,21.1667 63.5,18.8333 63.5,16.5 Z"/></g>
<g><path style="opacity:0.805" fill="#fefffe" d="M 81.5,5.5 C 84.1667,5.5 86.8333,5.5 89.5,5.5C 89.5,6.5 89.5,7.5 89.5,8.5C 86.8333,8.5 84.1667,8.5 81.5,8.5C 81.5,10.5 81.5,12.5 81.5,14.5C 92.1667,15.1667 92.1667,15.8333 81.5,16.5C 81.3379,18.5273 81.5045,20.5273 82,22.5C 84.4728,23.1197 86.9728,23.7864 89.5,24.5C 88.6519,25.9911 87.3186,26.6578 85.5,26.5C 83.1605,26.3308 80.9939,25.6642 79,24.5C 78.3333,18.8333 78.3333,13.1667 79,7.5C 79.9947,6.93406 80.828,6.26739 81.5,5.5 Z"/></g>
<g><path style="opacity:0.73" fill="#fefffe" d="M 94.5,5.5 C 97.5184,5.33537 100.518,5.50204 103.5,6C 107.213,7.69118 108.379,10.5245 107,14.5C 105.764,15.3992 104.93,16.5659 104.5,18C 105.417,20.5808 106.751,22.9141 108.5,25C 107.167,25.6667 105.833,25.6667 104.5,25C 102.968,22.9656 101.635,20.7989 100.5,18.5C 99.675,17.6143 98.675,17.281 97.5,17.5C 97.5,20.1667 97.5,22.8333 97.5,25.5C 96.5,25.5 95.5,25.5 94.5,25.5C 94.5,18.8333 94.5,12.1667 94.5,5.5 Z M 97.5,8.5 C 102.479,7.65004 104.479,9.48337 103.5,14C 101.527,14.4955 99.5273,14.6621 97.5,14.5C 97.5,12.5 97.5,10.5 97.5,8.5 Z"/></g>
<g><path style="opacity:0.664" fill="#fefffe" d="M 112.5,5.5 C 116.514,5.33449 120.514,5.50115 124.5,6C 125.022,6.5613 125.355,7.22797 125.5,8C 122.863,13.4405 120.363,18.9405 118,24.5C 116.989,25.3366 115.822,25.67 114.5,25.5C 116.265,19.9648 118.598,14.6315 121.5,9.5C 118.572,8.51592 115.572,8.18259 112.5,8.5C 112.5,7.5 112.5,6.5 112.5,5.5 Z"/></g>
<g><path style="opacity:0.678" fill="#fefffe" d="M 130.5,5.5 C 134.182,5.3347 137.848,5.50137 141.5,6C 142.059,6.72472 142.392,7.55805 142.5,8.5C 140.17,13.8283 137.836,19.1616 135.5,24.5C 134.167,25.8333 132.833,25.8333 131.5,24.5C 134.039,19.2549 136.706,14.0883 139.5,9C 136.518,8.50204 133.518,8.33537 130.5,8.5C 130.5,7.5 130.5,6.5 130.5,5.5 Z"/></g>
<g><path style="opacity:0.664" fill="#fefffe" d="M 147.5,5.5 C 151.514,5.33449 155.514,5.50115 159.5,6C 160.022,6.5613 160.355,7.22797 160.5,8C 157.863,13.4405 155.363,18.9405 153,24.5C 151.989,25.3366 150.822,25.67 149.5,25.5C 151.265,19.9648 153.598,14.6315 156.5,9.5C 153.572,8.51592 150.572,8.18259 147.5,8.5C 147.5,7.5 147.5,6.5 147.5,5.5 Z"/></g>
<g><path style="opacity:0.728" fill="#fefffe" d="M 173.5,5.5 C 175.39,5.2965 176.89,5.96317 178,7.5C 178.725,9.94938 179.725,12.2827 181,14.5C 182.753,11.9952 184.253,9.32858 185.5,6.5C 186.689,5.57131 188.022,5.23798 189.5,5.5C 189.5,12.1667 189.5,18.8333 189.5,25.5C 188.5,25.5 187.5,25.5 186.5,25.5C 186.666,21.1539 186.499,16.8206 186,12.5C 182.82,20.4453 179.82,20.4453 177,12.5C 176.501,16.8206 176.334,21.1539 176.5,25.5C 175.5,25.5 174.5,25.5 173.5,25.5C 173.5,18.8333 173.5,12.1667 173.5,5.5 Z"/></g>
<g><path style="opacity:0.723" fill="#fefffe" d="M 198.5,5.5 C 205.975,4.64113 209.641,7.97446 209.5,15.5C 209.949,21.2914 207.449,24.958 202,26.5C 199.113,26.0969 196.779,24.7635 195,22.5C 194.333,18.1667 194.333,13.8333 195,9.5C 195.69,7.64977 196.856,6.31643 198.5,5.5 Z M 199.5,8.5 C 201.722,8.17798 203.556,8.84464 205,10.5C 205.667,14.1667 205.667,17.8333 205,21.5C 202.237,24.288 199.903,23.9547 198,20.5C 196.994,16.1985 197.494,12.1985 199.5,8.5 Z"/></g>
<g><path style="opacity:0.712" fill="#fefffe" d="M 216.5,5.5 C 219.5,5.5 222.5,5.5 225.5,5.5C 225.5,6.5 225.5,7.5 225.5,8.5C 222.813,8.33591 220.146,8.50258 217.5,9C 217.043,9.41395 216.709,9.91395 216.5,10.5C 219.202,12.9422 222.035,15.2756 225,17.5C 226.004,24.9118 222.838,27.5785 215.5,25.5C 214.833,25.1667 214.167,24.8333 213.5,24.5C 215.766,23.6858 218.1,23.1858 220.5,23C 221.428,22.6121 222.095,21.9454 222.5,21C 220.048,18.1713 217.215,15.6713 214,13.5C 212.837,10.0289 213.67,7.36227 216.5,5.5 Z"/></g>
<g><path style="opacity:0.708" fill="#fefffe" d="M 234.5,5.5 C 236.857,5.33669 239.19,5.50335 241.5,6C 241.957,6.41395 242.291,6.91395 242.5,7.5C 233.134,8.0541 230.3,12.7208 234,21.5C 236.075,23.6483 238.408,23.9817 241,22.5C 241.692,23.0253 242.192,23.6919 242.5,24.5C 239.297,26.9648 235.964,27.1315 232.5,25C 229.671,20.5957 228.837,15.7624 230,10.5C 231.025,8.31305 232.525,6.64638 234.5,5.5 Z"/></g>
<g><path style="opacity:0.726" fill="#fefffe" d="M 250.5,5.5 C 255.133,4.45819 258.299,6.12486 260,10.5C 260.667,14.1667 260.667,17.8333 260,21.5C 257.237,26.0872 253.403,27.2539 248.5,25C 245.671,20.5957 244.837,15.7624 246,10.5C 247.025,8.31305 248.525,6.64638 250.5,5.5 Z M 251.5,8.5 C 253.993,8.3291 255.826,9.3291 257,11.5C 257.667,14.5 257.667,17.5 257,20.5C 255.053,23.9855 252.72,24.3188 250,21.5C 247.751,16.7534 248.251,12.4201 251.5,8.5 Z"/></g>
<g><path style="opacity:0.723" fill="#fefffe" d="M 284.5,5.5 C 284.5,7.83333 284.5,10.1667 284.5,12.5C 283.361,16.3007 282.528,20.3007 282,24.5C 280.333,25.8333 278.667,25.8333 277,24.5C 275.391,14.2224 273.891,14.5558 272.5,25.5C 270.833,25.5 269.167,25.5 267.5,25.5C 266.5,18.8359 265.5,12.1693 264.5,5.5C 265.5,5.5 266.5,5.5 267.5,5.5C 268.439,10.8034 269.273,16.1368 270,21.5C 270.834,18.8276 271.668,16.161 272.5,13.5C 274.045,12.5481 275.712,12.2148 277.5,12.5C 277.678,15.2165 278.178,17.8832 279,20.5C 280.529,15.636 281.362,10.636 281.5,5.5C 282.5,5.5 283.5,5.5 284.5,5.5 Z"/></g>
<g><path style="opacity:1" fill="#bbbcbe" d="M 24.5,11.5 C 24.8128,15.0419 24.4794,18.3752 23.5,21.5C 22.8333,17.5 22.1667,13.5 21.5,9.5C 20.1667,9.5 18.8333,9.5 17.5,9.5C 17.5,8.5 17.5,7.5 17.5,6.5C 19.5273,6.33788 21.5273,6.50454 23.5,7C 24.3802,8.35613 24.7135,9.85613 24.5,11.5 Z"/></g>
<g><path style="opacity:1" fill="#231d29" d="M 27.5,2.5 C 27.8333,2.5 28.1667,2.5 28.5,2.5C 28.5,11.1667 28.5,19.8333 28.5,28.5C 19.8333,28.5 11.1667,28.5 2.5,28.5C 2.5,28.1667 2.5,27.8333 2.5,27.5C 5.24688,27.8134 7.91355,27.48 10.5,26.5C 9.45018,25.5712 9.45018,24.9046 10.5,24.5C 14.0419,24.8128 17.3752,24.4794 20.5,23.5C 22.0269,23.573 23.0269,22.9063 23.5,21.5C 24.4794,18.3752 24.8128,15.0419 24.5,11.5C 25.397,12.5981 26.2303,12.5981 27,11.5C 27.498,8.51838 27.6646,5.51838 27.5,2.5 Z"/></g>
<g><path style="opacity:1" fill="#b6b6ba" d="M 9.5,9.5 C 9.3347,13.1817 9.50137,16.8484 10,20.5C 10.3826,21.056 10.8826,21.3893 11.5,21.5C 14.5,22.1667 17.5,22.8333 20.5,23.5C 17.3752,24.4794 14.0419,24.8128 10.5,24.5C 8.77055,23.7638 7.77055,22.4305 7.5,20.5C 8.16667,16.8333 8.83333,13.1667 9.5,9.5 Z"/></g>
<g><path style="opacity:1" fill="#929297" d="M 21.5,9.5 C 22.1667,13.5 22.8333,17.5 23.5,21.5C 23.0269,22.9063 22.0269,23.573 20.5,23.5C 17.5,22.8333 14.5,22.1667 11.5,21.5C 14.7766,21.7839 17.9433,21.4505 21,20.5C 21.4986,16.8484 21.6653,13.1817 21.5,9.5 Z"/></g>
<g><path style="opacity:0.639" fill="#fefffe" d="M 165.5,21.5 C 166.5,21.5 167.5,21.5 168.5,21.5C 168.5,22.8333 168.5,24.1667 168.5,25.5C 167.5,25.5 166.5,25.5 165.5,25.5C 165.5,24.1667 165.5,22.8333 165.5,21.5 Z"/></g>
<g><path style="opacity:1" fill="#b1b1b5" d="M 29.5,1.5 C 29.5,2.16667 29.1667,2.5 28.5,2.5C 28.1667,2.5 27.8333,2.5 27.5,2.5C 19.1667,2.5 10.8333,2.5 2.5,2.5C 2.5,10.8333 2.5,19.1667 2.5,27.5C 2.5,27.8333 2.5,28.1667 2.5,28.5C 5.83333,29.1667 9.16667,29.8333 12.5,30.5C 8.83333,30.5 5.16667,30.5 1.5,30.5C 0.361008,20.9107 0.194341,11.244 1,1.5C 10.5982,0.17156 20.0982,0.17156 29.5,1.5 Z"/></g>
<g><path style="opacity:1" fill="#312d39" d="M 27.5,2.5 C 27.6646,5.51838 27.498,8.51838 27,11.5C 26.2303,12.5981 25.397,12.5981 24.5,11.5C 24.7135,9.85613 24.3802,8.35613 23.5,7C 21.5273,6.50454 19.5273,6.33788 17.5,6.5C 17.5,7.5 17.5,8.5 17.5,9.5C 18.8333,9.5 20.1667,9.5 21.5,9.5C 21.6653,13.1817 21.4986,16.8484 21,20.5C 17.9433,21.4505 14.7766,21.7839 11.5,21.5C 10.8826,21.3893 10.3826,21.056 10,20.5C 9.50137,16.8484 9.3347,13.1817 9.5,9.5C 10.8333,9.5 12.1667,9.5 13.5,9.5C 13.5,8.5 13.5,7.5 13.5,6.5C 11.2075,6.24358 9.04083,6.57692 7,7.5C 6.18636,12.0204 6.35303,16.3537 7.5,20.5C 7.77055,22.4305 8.77055,23.7638 10.5,24.5C 9.45018,24.9046 9.45018,25.5712 10.5,26.5C 7.91355,27.48 5.24688,27.8134 2.5,27.5C 2.5,19.1667 2.5,10.8333 2.5,2.5C 10.8333,2.5 19.1667,2.5 27.5,2.5 Z"/></g>
<g><path style="opacity:1" fill="#cdcdd0" d="M 9.5,9.5 C 8.83333,13.1667 8.16667,16.8333 7.5,20.5C 6.35303,16.3537 6.18636,12.0204 7,7.5C 9.04083,6.57692 11.2075,6.24358 13.5,6.5C 13.5,7.5 13.5,8.5 13.5,9.5C 12.1667,9.5 10.8333,9.5 9.5,9.5 Z"/></g>
<g><path style="opacity:0.842" fill="#1c1621" d="M 30.5,1.5 C 30.8333,1.5 31.1667,1.5 31.5,1.5C 31.5,11.5 31.5,21.5 31.5,31.5C 21.5,31.5 11.5,31.5 1.5,31.5C 1.5,31.1667 1.5,30.8333 1.5,30.5C 5.16667,30.5 8.83333,30.5 12.5,30.5C 18.4254,30.8082 24.2588,30.4749 30,29.5C 30.4998,20.1726 30.6665,10.8393 30.5,1.5 Z"/></g>
<g><path style="opacity:1" fill="#86858a" d="M 29.5,1.5 C 29.8333,1.5 30.1667,1.5 30.5,1.5C 30.6665,10.8393 30.4998,20.1726 30,29.5C 24.2588,30.4749 18.4254,30.8082 12.5,30.5C 9.16667,29.8333 5.83333,29.1667 2.5,28.5C 11.1667,28.5 19.8333,28.5 28.5,28.5C 28.5,19.8333 28.5,11.1667 28.5,2.5C 29.1667,2.5 29.5,2.16667 29.5,1.5 Z"/></g>
</svg>
