<?xml version="1.0" encoding="UTF-8"?>
<!DOCTYPE svg PUBLIC "-//W3C//DTD SVG 1.1//EN" "http://www.w3.org/Graphics/SVG/1.1/DTD/svg11.dtd">
<svg xmlns="http://www.w3.org/2000/svg" version="1.1" width="14px" height="14px" style="shape-rendering:geometricPrecision; text-rendering:geometricPrecision; image-rendering:optimizeQuality; fill-rule:evenodd; clip-rule:evenodd" xmlns:xlink="http://www.w3.org/1999/xlink">
<g><path style="opacity:1" fill="#1eacc7" d="M 5.5,-0.5 C 6.16667,-0.5 6.83333,-0.5 7.5,-0.5C 7.5,1.5 7.5,3.5 7.5,5.5C 9.5,5.5 11.5,5.5 13.5,5.5C 13.5,6.16667 13.5,6.83333 13.5,7.5C 11.5,7.5 9.5,7.5 7.5,7.5C 7.5,9.5 7.5,11.5 7.5,13.5C 6.83333,13.5 6.16667,13.5 5.5,13.5C 5.5,11.5 5.5,9.5 5.5,7.5C 3.5,7.5 1.5,7.5 -0.5,7.5C -0.5,6.83333 -0.5,6.16667 -0.5,5.5C 1.5,5.5 3.5,5.5 5.5,5.5C 5.5,3.5 5.5,1.5 5.5,-0.5 Z"/></g>
</svg>
